<svg xmlns="http://www.w3.org/2000/svg" width="300" height="105" viewBox="0 0 300 105">
    <defs>
        <linearGradient id="a" x1="49.998%" x2="49.998%" y1="76.109%" y2="136.199%">
            <stop offset="0%" stop-color="#006881" stop-opacity="0"/>
            <stop offset="99.9%" stop-color="#016A8E"/>
        </linearGradient>
        <linearGradient id="b" x1="2188.9%" x2="3826.4%" y1="2085.879%" y2="1341.682%">
            <stop offset="0%" stop-color="#006881" stop-opacity="0"/>
            <stop offset="99.9%" stop-color="#016A8E"/>
        </linearGradient>
    </defs>
    <g fill="none" fill-rule="nonzero">
        <path fill="#FFF" d="M97.33 83.835c-.034 2.591.092 5.181.377 7.757l-.378.19c-.693-1.261-2.585-4.666-4.73-7.883L78.536 62.836H70.59v41.62h8.644L79.17 84.34a50.215 50.215 0 0 0-.316-7.503l.38-.19c1.01 1.639 3.153 5.235 4.792 7.757l13.433 20.053h8.506v-41.62h-8.699l.062 21zm25.283-9.457c0-2.839 2.333-4.603 6.115-4.603 4.856 0 7.063 3.279 7.252 5.485l8.01-1.953c-.947-4.475-4.352-10.91-15.45-10.91-8.955 0-14.883 5.491-14.883 12.486 0 14.693 21.692 10.28 21.692 18.604 0 2.585-2.207 4.16-6.684 4.16-5.425 0-9.839-3.215-11.796-4.983l-5.234 6.433a25.947 25.947 0 0 0 16.773 5.802c10.595 0 15.829-5.109 15.829-11.603.005-15.64-21.624-11.352-21.624-18.92v.002zm-69.615 30.081h8.766V62.836h-8.766v41.623zm232.42-20.308l14.379-21.315h-9.273L278.727 81h-3.845V62.836h-8.95v41.62h8.956V88.125h4.414l11.224 16.333h9.397L285.418 84.15zm-26.73 13.558c-5.235 0-5.36-7-9.84-9.08 5.299-2.018 8.388-5.929 8.388-11.731 0-9.775-5.796-14.063-16.648-14.063H226.46v41.62h8.955V90.204h1.893c9.397 0 5.928 14.695 18.602 14.695a19.492 19.492 0 0 0 4.605-.442l-.569-6.875a6.444 6.444 0 0 1-1.26.128zM239.39 83.9h-3.974V69.9h4.666c5.299 0 8.326 2.396 8.326 7.063 0 4.476-3.658 6.935-9.018 6.935zm-41.933-21.063l-14.757 41.62h9.143l2.903-8.891h15.07l2.903 8.892h9.082l-14.695-41.62h-9.65zm-.509 25.981l3.973-12.297a35.436 35.436 0 0 0 1.262-4.794h.19c.33 1.6.75 3.18 1.262 4.73l4.036 12.361h-10.723zm-31.017-25.98h-14.95v41.62h8.957V92.349h7.187c9.397 0 16.272-4.918 16.272-14.757 0-9.839-6.557-14.756-17.466-14.756zm-.509 22.448h-5.485V69.9h5.114c6.18 0 9.27 2.962 9.27 7.692-.003 4.984-3.22 7.694-8.895 7.694h-.004z"/>
        <path fill="#2BB6BD" d="M16.453 86.15C28.713 59.375 54.59 39.19 86.09 32.955l.057-.042H54.764L43.074 0 31.388 32.908H0l25.609 19.323-9.156 33.92z"/>
        <path fill="url(#a)" d="M54.764 32.933L43.076.024 31.387 32.933"/>
        <path fill="url(#b)" d="M25.605 52.246l-9.153 33.906a89.979 89.979 0 0 1 18.783-26.62l-9.63-7.286z"/>
    </g>
</svg>
